<?xml version="1.0" encoding="UTF-8"?>
<svg width="1200pt" height="1200pt" version="1.1" viewBox="0 0 1200 1200" xmlns="http://www.w3.org/2000/svg">
 <g>
  <path d="m720.28 205.67c4.0195 0.13281 8.0508 0.21484 12.035 0.50391-3.9844-0.28906-8.0156-0.37109-12.035-0.50391z"/>
  <path d="m92.34 806.16c-0.16797-1.8008-0.40625-3.5742-0.55078-5.375 0.14453 1.8008 0.38281 3.5625 0.55078 5.375z"/>
  <path d="m771.29 211.63c3.9375 0.80469 7.9062 1.5234 11.797 2.4844-3.8789-0.96094-7.8398-1.6797-11.797-2.4844z"/>
  <path d="m94.391 823.03c-0.3125-2.1016-0.68359-4.1758-0.96094-6.2773 0.27734 2.1016 0.64844 4.1797 0.96094 6.2773z"/>
  <path d="m362.86 1045.6c-6.9375-1.3906-13.848-3.0859-20.723-5.0508 6.875 1.9688 13.789 3.6602 20.723 5.0508z"/>
  <path d="m115.56 898.96c-0.91016-2.1836-1.8594-4.3203-2.7344-6.5273 0.875 2.207 1.8242 4.3438 2.7344 6.5273z"/>
  <path d="m819.98 225.84c3.5625 1.3789 7.1992 2.6406 10.691 4.1523-3.4922-1.5-7.1289-2.7734-10.691-4.1523z"/>
  <path d="m109.93 884.57c-0.80469-2.2305-1.6562-4.4141-2.4102-6.6719 0.75391 2.2578 1.6055 4.4414 2.4102 6.6719z"/>
  <path d="m104.98 869.75c-0.68359-2.2305-1.4297-4.4414-2.0625-6.6953 0.63281 2.2578 1.3672 4.4766 2.0625 6.6953z"/>
  <path d="m97.188 839.09c-0.44531-2.207-0.94922-4.3906-1.3438-6.6367 0.39453 2.2422 0.89844 4.4141 1.3438 6.6367z"/>
  <path d="m100.71 854.61c-0.5625-2.2422-1.1875-4.4531-1.7148-6.707 0.52734 2.2539 1.1523 4.4609 1.7148 6.707z"/>
  <path d="m746.06 207.6c4.0078 0.46875 8.0273 0.875 11.988 1.5-3.957-0.625-7.9805-1.0352-11.988-1.5z"/>
  <path d="m413.8 1050.8c7.4297 0 14.809-0.37109 22.164-1.043-7.4766 0.68359-15 1.043-22.547 1.0312 0.12891 0 0.26172 0.011719 0.38281 0.011719z"/>
  <path d="m501.56 1033.9c-4.1875 1.6914-8.4102 3.2539-12.695 4.6797 4.2852-1.4258 8.5078-2.9883 12.695-4.6797z"/>
  <path d="m480.17 1041.3c-4.4297 1.2852-8.9023 2.375-13.402 3.3945 4.5-1.0078 8.9727-2.0977 13.402-3.3945z"/>
  <path d="m458.26 1046.6c-5.0391 0.94922-10.152 1.6211-15.266 2.2422 5.125-0.625 10.223-1.2969 15.266-2.2422z"/>
  <path d="m387.96 1049.4c-7.0664-0.71875-14.125-1.7891-21.18-3.1094 7.043 1.3242 14.109 2.4023 21.18 3.1094z"/>
  <path d="m412.08 1050.7c-7.0938-0.046876-14.207-0.43359-21.312-1.0938 7.1055 0.65234 14.223 1.0469 21.312 1.0938z"/>
  <path d="m522.47 1024.1c-4.1055 2.1836-8.2422 4.2734-12.469 6.1914 4.2227-1.9219 8.3633-4.0195 12.469-6.1914z"/>
  <path d="m843.5 236.05c3.1914 1.5469 6.457 2.9766 9.5898 4.6328-3.1328-1.668-6.3984-3.082-9.5898-4.6328z"/>
  <path d="m866.81 248.62c2.543 1.5117 5.1719 2.8906 7.668 4.4766-2.4961-1.5977-5.125-2.9648-7.668-4.4766z"/>
  <path d="m567.34 992.82c-5.7852 5.2578-11.82 10.105-18.012 14.641 6.1914-4.5352 12.227-9.3711 18.012-14.641z"/>
  <path d="m543.14 1011.6c-4.2617 2.9023-8.5547 5.7461-12.973 8.3281 4.418-2.582 8.6992-5.4258 12.973-8.3281z"/>
  <path d="m795.93 217.73c3.8047 1.1055 7.6562 2.125 11.398 3.3828-3.7461-1.2578-7.5859-2.2773-11.398-3.3828z"/>
  <path d="m311.4 1078.6c-2.3984-0.75781-4.7773-1.5469-7.1523-2.3633 2.3789 0.8125 4.7539 1.5938 7.1523 2.3633z"/>
  <path d="m296.88 1073.5c-2.3398-0.875-4.6914-1.7656-6.9961-2.7109 2.3164 0.9375 4.6445 1.8359 6.9961 2.7109z"/>
  <path d="m268.73 1061.4c-2.207-1.0938-4.4023-2.1719-6.5742-3.3008 2.1719 1.1406 4.3672 2.2109 6.5742 3.3008z"/>
  <path d="m282.61 1067.8c-2.2695-0.97266-4.5234-1.957-6.7578-2.9883 2.2344 1.0312 4.4883 2.0156 6.7578 2.9883z"/>
  <path d="m326.24 1083c-2.4375-0.66016-4.8711-1.3203-7.2852-2.0273 2.4141 0.70703 4.8516 1.3672 7.2852 2.0273z"/>
  <path d="m255.23 1054.3c-2.1484-1.1875-4.2734-2.3633-6.3828-3.6016 2.1016 1.2383 4.2344 2.4258 6.3828 3.6016z"/>
  <path d="m404.28 1093.7c-2.5938-0.035156-5.1953-0.10938-7.7773-0.20312 2.5938 0.097657 5.1836 0.16797 7.7773 0.20312z"/>
  <path d="m388.25 1093.1c-2.5781-0.16797-5.1602-0.34766-7.7383-0.57422 2.582 0.22656 5.1602 0.40625 7.7383 0.57422z"/>
  <path d="m372.38 1091.7c-2.543-0.28906-5.0898-0.61328-7.6211-0.96094 2.5352 0.35156 5.0781 0.66016 7.6211 0.96094z"/>
  <path d="m356.75 1089.5c-2.5078-0.40625-5.0156-0.83984-7.5117-1.3203 2.4961 0.48047 5.0039 0.91406 7.5117 1.3203z"/>
  <path d="m341.38 1086.6c-2.4844-0.52734-4.9688-1.0938-7.4297-1.6797 2.4766 0.58594 4.9453 1.1523 7.4297 1.6797z"/>
  <path d="m172.49 988.62c-1.5859-1.7539-3.1797-3.4922-4.7148-5.2695 1.5352 1.7773 3.1289 3.5156 4.7148 5.2695z"/>
  <path d="m128.81 926.69c-1.1289-2.0898-2.2812-4.1523-3.3594-6.2656 1.0781 2.1133 2.2422 4.1797 3.3594 6.2656z"/>
  <path d="m153.3 965.18c-1.4141-1.8945-2.8438-3.7695-4.2109-5.7227 1.3672 1.9414 2.793 3.8164 4.2109 5.7227z"/>
  <path d="m162.6 977.12c-1.4883-1.8242-3-3.6367-4.4414-5.4844 1.4414 1.8477 2.9531 3.6484 4.4414 5.4844z"/>
  <path d="m136.38 939.95c-1.2344-2.0391-2.4844-4.043-3.6602-6.1094 1.1758 2.0625 2.4375 4.0664 3.6602 6.1094z"/>
  <path d="m144.54 952.77c-1.3086-1.957-2.6523-3.8984-3.9258-5.8906 1.2734 1.9883 2.6172 3.9336 3.9258 5.8906z"/>
  <path d="m182.9 999.65c-1.6797-1.6914-3.3594-3.3594-5.0039-5.1016 1.6328 1.7305 3.3242 3.4102 5.0039 5.1016z"/>
  <path d="m229.39 1038.4c-2.0039-1.3672-4.0195-2.7461-6-4.1641 1.9805 1.4297 3.9844 2.7969 6 4.1641z"/>
  <path d="m217.05 1029.5c-1.9219-1.4414-3.8398-2.8906-5.7227-4.3789 1.8828 1.4883 3.8047 2.9414 5.7227 4.3789z"/>
  <path d="m193.81 1010.1c-1.7656-1.6211-3.5273-3.2266-5.2578-4.8711 1.7188 1.6445 3.4922 3.25 5.2578 4.8711z"/>
  <path d="m205.2 1020.1c-1.8477-1.5352-3.6953-3.0703-5.4961-4.6562 1.8008 1.582 3.6484 3.1055 5.4961 4.6562z"/>
  <path d="m242.1 1046.7c-2.0742-1.2734-4.1641-2.5664-6.2148-3.8867 2.0625 1.3203 4.1367 2.6016 6.2148 3.8867z"/>
  <path d="m121.85 913c-1.0078-2.1367-2.0625-4.2344-3.0352-6.3828 0.97266 2.1484 2.0273 4.2461 3.0352 6.3828z"/>
  <path d="m231.73 579.01c4.2852-2.9297 8.6172-5.7852 13.055-8.3867-4.4492 2.6016-8.7695 5.4609-13.055 8.3867z"/>
  <path d="m481.8 569.29c6.8516 3.4805 13.57 7.3203 20.207 11.398-6.6367-4.0781-13.355-7.9297-20.207-11.398z"/>
  <path d="m252.38 566.51c4.1641-2.207 8.3516-4.332 12.625-6.2539-4.2734 1.9219-8.4609 4.0469-12.625 6.2539z"/>
  <path d="m247.67 992.41c-6.0977-4.7148-12.07-9.6602-17.879-14.914 5.8086 5.2578 11.781 10.211 17.879 14.914z"/>
  <path d="m273.25 556.75c4.2734-1.7266 8.5938-3.3125 12.961-4.7656-4.3711 1.4531-8.6914 3.0352-12.961 4.7656z"/>
  <path d="m227.27 975.13c-6.0703-5.6523-12.023-11.508-17.723-17.762 5.7109 6.2539 11.66 12.109 17.723 17.762z"/>
  <path d="m505.16 582.62c6.3828 4.0312 12.637 8.375 18.77 12.973-6.1328-4.5977-12.398-8.9297-18.77-12.973z"/>
  <path d="m207.57 597.79c5.7852-5.2695 11.832-10.117 18.023-14.664-6.1914 4.5469-12.227 9.3828-18.023 14.664z"/>
  <path d="m459.6 559.26c7.0195 2.8203 13.969 5.9414 20.82 9.3711-6.8555-3.4336-13.801-6.5547-20.82-9.3711z"/>
  <path d="m362.48 539.81c7.332 0.035156 14.688 0.44531 22.055 1.1289-7.3672-0.68359-14.734-1.082-22.055-1.1289z"/>
  <path d="m294.66 549.29c4.5586-1.332 9.1797-2.4609 13.824-3.5039-4.6445 1.043-9.2656 2.1719-13.824 3.5039z"/>
  <path d="m386.88 541.14c7.1875 0.73047 14.375 1.8242 21.551 3.168-7.1719-1.3438-14.363-2.4492-21.551-3.168z"/>
  <path d="m361.15 539.77c-7.4648 0-14.891 0.38281-22.273 1.0664 7.5586-0.69531 15.168-1.0664 22.812-1.0547-0.17969 0-0.35938-0.011718-0.53906-0.011718z"/>
  <path d="m436.45 551.15c7.1172 2.1484 14.184 4.5352 21.18 7.2852-6.9961-2.75-14.078-5.1484-21.18-7.2852z"/>
  <path d="m411.96 544.98c7.043 1.4141 14.062 3.1328 21.035 5.1367-6.9844-2.0156-13.992-3.7227-21.035-5.1367z"/>
  <path d="m316.56 544.01c5.293-0.99609 10.656-1.7148 16.02-2.3516-5.375 0.63672-10.727 1.3555-16.02 2.3516z"/>
  <path d="m527.27 598.14c6.1211 4.7266 12.133 9.6953 17.965 15-5.8359-5.3047-11.848-10.273-17.965-15z"/>
  <path d="m315.13 1031.2c-6.8398-2.7617-13.633-5.7969-20.316-9.1445 6.6953 3.3359 13.465 6.375 20.316 9.1445z"/>
  <path d="m269.76 1007.9c-6.3242-4.0078-12.539-8.3047-18.625-12.863 6.0938 4.5586 12.301 8.8555 18.625 12.863z"/>
  <path d="m547.69 615.46c6.0859 5.6523 12.035 11.531 17.746 17.797-5.6992-6.2656-11.66-12.145-17.746-17.797z"/>
  <path d="m293.11 1021.2c-6.7812-3.4336-13.43-7.2461-20.004-11.27 6.5742 4.0352 13.223 7.8398 20.004 11.27z"/>
  <path d="m338.35 1039.4c-7.0078-2.125-13.98-4.4766-20.867-7.1875 6.8867 2.7109 13.859 5.0781 20.867 7.1875z"/>
  <path d="m167.76 983.34c-1.7539-2.0508-3.457-4.1406-5.1719-6.2266 1.7148 2.0977 3.4062 4.1758 5.1719 6.2266z"/>
  <path d="m188.55 1005.3c-1.9219-1.8359-3.7812-3.7422-5.6523-5.6289 1.8633 1.8945 3.7344 3.793 5.6523 5.6289z"/>
  <path d="m380.51 1092.5c-2.7109-0.23828-5.4258-0.50391-8.125-0.80469 2.7031 0.30078 5.4141 0.56641 8.125 0.80469z"/>
  <path d="m364.77 1090.7c-2.6875-0.35938-5.3516-0.76953-8.0156-1.2109 2.6602 0.43359 5.3242 0.83984 8.0156 1.2109z"/>
  <path d="m177.9 994.55c-1.8477-1.9336-3.625-3.9375-5.4258-5.9297 1.8047 1.9961 3.5781 4 5.4258 5.9297z"/>
  <path d="m457.63 558.43c0.66016 0.26562 1.3086 0.5625 1.9805 0.82812-0.67188-0.26562-1.3203-0.56641-1.9805-0.82812z"/>
  <path d="m140.62 946.87c-1.4648-2.2812-2.832-4.6211-4.2344-6.9258 1.3906 2.3086 2.7695 4.6484 4.2344 6.9258z"/>
  <path d="m433 550.11c1.1523 0.33594 2.3047 0.69531 3.457 1.0312-1.1523-0.33594-2.3047-0.69531-3.457-1.0312z"/>
  <path d="m408.27 1093.8c2.8906 0 5.7344-0.046875 8.6289-0.12109-4.2227 0.12109-8.4258 0.070312-12.613 0.023438 1.3438 0.023437 2.6523 0.097656 3.9844 0.097656z"/>
  <path d="m408.43 544.3c1.1758 0.22656 2.3516 0.43359 3.5273 0.67188-1.1875-0.23047-2.3516-0.44531-3.5273-0.67188z"/>
  <path d="m158.16 971.64c-1.6562-2.125-3.2539-4.2852-4.8594-6.457 1.6055 2.1602 3.1914 4.332 4.8594 6.457z"/>
  <path d="m396.5 1093.5c-2.7617-0.10938-5.5078-0.23828-8.2578-0.40625 2.75 0.16406 5.4961 0.29688 8.2578 0.40625z"/>
  <path d="m149.09 959.46c-1.5586-2.1953-3.0352-4.4531-4.5469-6.6953 1.4961 2.2422 2.9844 4.5 4.5469 6.6953z"/>
  <path d="m235.89 1042.8c-2.1953-1.4141-4.3438-2.8906-6.5039-4.3672 2.1484 1.4727 4.3086 2.9492 6.5039 4.3672z"/>
  <path d="m523.93 595.6c1.1172 0.83984 2.2305 1.6914 3.3359 2.543-1.1055-0.86328-2.2227-1.7031-3.3359-2.543z"/>
  <path d="m545.23 613.14c0.82812 0.74219 1.6445 1.5586 2.4727 2.3164-0.83984-0.75781-1.6445-1.5742-2.4727-2.3164z"/>
  <path d="m304.25 1076.2c-2.4727-0.86328-4.9336-1.7656-7.3672-2.6875 2.4375 0.91406 4.8867 1.8125 7.3672 2.6875z"/>
  <path d="m262.15 1058.1c-2.3281-1.2109-4.6328-2.4727-6.9258-3.7422 2.293 1.2734 4.5859 2.5312 6.9258 3.7422z"/>
  <path d="m248.83 1050.7c-2.2695-1.3086-4.5-2.6875-6.7305-4.0664 2.2305 1.3789 4.4609 2.75 6.7305 4.0664z"/>
  <path d="m275.86 1064.8c-2.3984-1.1055-4.7656-2.2578-7.1289-3.4062 2.3672 1.1602 4.7305 2.3125 7.1289 3.4062z"/>
  <path d="m132.72 933.84c-1.3555-2.3633-2.6172-4.7656-3.9102-7.1641 1.2969 2.3984 2.5547 4.8008 3.9102 7.1641z"/>
  <path d="m289.87 1070.8c-2.4375-0.98438-4.8477-2.0156-7.2617-3.0586 2.4141 1.043 4.8281 2.0742 7.2617 3.0586z"/>
  <path d="m349.23 1088.2c-2.6289-0.49219-5.2578-1.0312-7.8594-1.5977 2.6055 0.56641 5.2227 1.1055 7.8594 1.5977z"/>
  <path d="m480.42 568.63c0.45703 0.22656 0.92578 0.43359 1.3789 0.66016-0.45703-0.23047-0.92578-0.43359-1.3789-0.66016z"/>
  <path d="m199.7 1015.5c-1.9922-1.7383-3.9375-3.5273-5.8906-5.3164 1.9453 1.7891 3.8984 3.5859 5.8906 5.3164z"/>
  <path d="m211.33 1025.1c-2.0625-1.6445-4.1055-3.3359-6.1328-5.0273 2.0391 1.6797 4.0586 3.3828 6.1328 5.0273z"/>
  <path d="m318.96 1080.9c-2.5312-0.74219-5.0391-1.5352-7.5469-2.3398 2.4922 0.80078 5.0156 1.5938 7.5469 2.3398z"/>
  <path d="m333.95 1084.9c-2.5781-0.625-5.1484-1.2852-7.7031-1.9688 2.5547 0.68359 5.1211 1.3438 7.7031 1.9688z"/>
  <path d="m223.39 1034.3c-2.1367-1.5352-4.2461-3.1328-6.3359-4.7266 2.1016 1.5938 4.2031 3.1875 6.3359 4.7266z"/>
  <path d="m502.01 580.69c1.043 0.64844 2.1016 1.2734 3.1445 1.9336-1.0312-0.66016-2.0898-1.2852-3.1445-1.9336z"/>
  <path d="m530.17 1020c-2.5195 1.4766-5.125 2.7852-7.7031 4.1641 2.5781-1.3711 5.1719-2.6875 7.7031-4.1641z"/>
  <path d="m807.32 221.1c4.2852 1.4414 8.4492 3.1211 12.66 4.7383-4.2109-1.6094-8.3633-3.3008-12.66-4.7383z"/>
  <path d="m342.13 1040.5c-1.2617-0.35937-2.5195-0.74219-3.7812-1.1406 1.2617 0.38672 2.5195 0.78125 3.7812 1.1406z"/>
  <path d="m510 1030.3c-2.7852 1.2617-5.6055 2.4375-8.4375 3.5742 2.8438-1.1289 5.6523-2.3047 8.4375-3.5742z"/>
  <path d="m251.14 995.06c-1.1641-0.875-2.3164-1.7539-3.4688-2.6523 1.1523 0.89062 2.3047 1.7773 3.4688 2.6523z"/>
  <path d="m229.79 977.5c-0.85156-0.76953-1.6797-1.5977-2.5195-2.3633 0.85156 0.77734 1.6797 1.5938 2.5195 2.3633z"/>
  <path d="m830.68 229.99c4.3555 1.8594 8.5781 3.9961 12.828 6.0586-4.2461-2.0625-8.4727-4.1992-12.828-6.0586z"/>
  <path d="m225.61 583.13c1.9922-1.4648 4.0938-2.7344 6.1211-4.1172-2.043 1.3906-4.1289 2.6523-6.1211 4.1172z"/>
  <path d="m874.48 253.09c6.9375 4.4141 13.715 9.0977 20.258 14.039-6.543-4.9453-13.324-9.625-20.258-14.039z"/>
  <path d="m853.09 240.68c4.6797 2.4727 9.1914 5.2305 13.727 7.9336-4.5469-2.7148-9.0469-5.4609-13.727-7.9336z"/>
  <path d="m549.32 1007.5c-2.0156 1.4766-4.1289 2.7617-6.1914 4.1641 2.0625-1.3945 4.1758-2.6875 6.1914-4.1641z"/>
  <path d="m294.82 1022.1c-0.5625-0.27734-1.1406-0.52734-1.7031-0.81641 0.5625 0.28906 1.1406 0.53125 1.7031 0.81641z"/>
  <path d="m366.78 1046.3c-1.3086-0.25391-2.6172-0.48047-3.9258-0.74219 1.3086 0.26172 2.6172 0.5 3.9258 0.74219z"/>
  <path d="m443 1048.8c-2.3516 0.27734-4.6797 0.69531-7.0312 0.91016 2.3516-0.21484 4.668-0.62109 7.0312-0.91016z"/>
  <path d="m413.41 1050.8c-0.44531 0-0.88672-0.035156-1.332-0.035156 0.44531 0.007813 0.89062 0.035156 1.332 0.035156z"/>
  <path d="m384.53 540.95c0.78125 0.070312 1.5586 0.10938 2.3398 0.19141-0.76563-0.085937-1.5469-0.13281-2.3398-0.19141z"/>
  <path d="m273.12 1010c-1.1172-0.69531-2.2422-1.3438-3.3477-2.0508 1.1016 0.70703 2.2305 1.3555 3.3477 2.0508z"/>
  <path d="m317.48 1032.2c-0.79297-0.30078-1.5586-0.66016-2.3516-0.97266 0.79297 0.3125 1.5586 0.66016 2.3516 0.97266z"/>
  <path d="m488.88 1038.6c-2.8906 0.96094-5.7852 1.9219-8.7109 2.7617 2.9297-0.83984 5.8203-1.8008 8.7109-2.7617z"/>
  <path d="m466.75 1044.7c-2.832 0.63672-5.6406 1.332-8.4961 1.8711 2.8672-0.53906 5.6758-1.2461 8.4961-1.8711z"/>
  <path d="m361.69 539.79c0.26562 0 0.51562 0.023438 0.78125 0.023438-0.25391 0-0.51562-0.023438-0.78125-0.023438z"/>
  <path d="m102.91 863.06c-0.79297-2.7852-1.4766-5.6406-2.1953-8.4609 0.72266 2.8242 1.4062 5.668 2.1953 8.4609z"/>
  <path d="m107.52 877.89c-0.91016-2.6875-1.7148-5.4102-2.543-8.1484 0.82813 2.7383 1.6328 5.4727 2.543 8.1484z"/>
  <path d="m332.58 541.66c2.1016-0.25391 4.1875-0.625 6.3008-0.81641-2.1211 0.19141-4.1992 0.5625-6.3008 0.81641z"/>
  <path d="m99 847.89c-0.67188-2.9023-1.2227-5.8672-1.8125-8.8086 0.58984 2.9414 1.1406 5.9062 1.8125 8.8086z"/>
  <path d="m390.76 1049.7c-0.9375-0.085938-1.8711-0.13281-2.8086-0.23828 0.94531 0.10547 1.8711 0.15234 2.8086 0.23828z"/>
  <path d="m112.82 892.43c-1.0195-2.5938-1.9453-5.2422-2.8906-7.8594 0.94531 2.625 1.8711 5.2656 2.8906 7.8594z"/>
  <path d="m118.81 906.61c-1.1406-2.5312-2.1836-5.1016-3.2539-7.6562 1.0703 2.5547 2.1133 5.1211 3.2539 7.6562z"/>
  <path d="m125.45 920.41c-1.2461-2.4375-2.4102-4.9336-3.6016-7.4141 1.1875 2.4844 2.3516 4.9805 3.6016 7.4141z"/>
  <path d="m308.48 545.79c2.6875-0.60156 5.3633-1.2734 8.0742-1.7773-2.7227 0.50391-5.3867 1.1758-8.0742 1.7773z"/>
  <path d="m732.31 206.17c4.6211 0.33594 9.1797 0.88672 13.754 1.4297-4.5742-0.54297-9.1211-1.0938-13.754-1.4297z"/>
  <path d="m758.05 209.1c4.4648 0.70703 8.8438 1.6445 13.246 2.5312-4.4023-0.90234-8.7812-1.8359-13.246-2.5312z"/>
  <path d="m95.844 832.45c-0.55078-3.1094-0.98438-6.2656-1.4531-9.4219 0.46875 3.1562 0.89062 6.3125 1.4531 9.4219z"/>
  <path d="m783.1 214.11c4.332 1.0547 8.5664 2.3633 12.828 3.6133-4.2617-1.2383-8.4961-2.5469-12.828-3.6133z"/>
  <path d="m244.79 570.62c2.4961-1.4531 5.0508-2.7617 7.5977-4.1172-2.5469 1.3555-5.1016 2.6641-7.5977 4.1172z"/>
  <path d="m265.01 560.26c2.7227-1.2344 5.4844-2.3867 8.2422-3.5039-2.7578 1.1133-5.5078 2.2539-8.2422 3.5039z"/>
  <path d="m286.21 551.98c2.7969-0.9375 5.6055-1.8594 8.4492-2.6875-2.8438 0.82813-5.6406 1.75-8.4492 2.6875z"/>
  <path d="m91.789 800.77c-0.40625-5.3516-0.69531-10.754-0.83984-16.199 0.15625 5.4453 0.42969 10.848 0.83984 16.199z"/>
  <path d="m93.434 816.74c-0.45703-3.5156-0.75781-7.0547-1.0938-10.598 0.33594 3.5547 0.64844 7.0938 1.0938 10.598z"/>
  <path d="m710.33 205.25c-2.7852 0-5.5664 0.035156-8.375 0.12109 6.168-0.16797 12.238 0.10937 18.324 0.30078-3.3242-0.10938-6.5898-0.42188-9.9492-0.42188z"/>
  <path d="m944.3 313.95 178.08-86.062-170.17-161.81-57.469 201.06c-6.5508-4.9453-13.32-9.625-20.258-14.039-2.4961-1.5859-5.125-2.9648-7.668-4.4766-4.5352-2.7109-9.0469-5.4609-13.727-7.9336-3.1328-1.6562-6.3945-3.0859-9.5898-4.6328-4.2461-2.0625-8.4727-4.1992-12.828-6.0586-3.4922-1.5-7.1289-2.7734-10.691-4.1523-4.2109-1.6211-8.3633-3.3008-12.66-4.7383-3.7422-1.2461-7.5977-2.2695-11.398-3.3828-4.2617-1.2461-8.4961-2.5547-12.828-3.6133-3.8867-0.94922-7.8594-1.6797-11.797-2.4844-4.3906-0.88672-8.7734-1.8242-13.246-2.5312-3.9609-0.625-7.9805-1.0312-11.988-1.5-4.5703-0.53906-9.1328-1.0938-13.754-1.4297-3.9844-0.28906-8.0156-0.37109-12.035-0.50391-6.0977-0.19141-12.168-0.46875-18.324-0.30078-64.164 1.6914-123.18 23.016-171.53 58.008l-100.25 84-0.42188 0.28906c-10.379 7.5234-230.09 188.52-241.7 199.84l-0.14453 0.023437h0.035156c-61.832 59.777-99.406 144.29-96.98 237.08 0.14453 5.4375 0.43359 10.836 0.83984 16.199 0.14453 1.8008 0.38281 3.5742 0.55078 5.375 0.33594 3.5391 0.63672 7.0781 1.0938 10.598 0.26563 2.1133 0.64844 4.1875 0.96094 6.2773 0.46875 3.1562 0.89844 6.3125 1.4531 9.4219 0.39453 2.2422 0.89844 4.4297 1.3438 6.6367 0.58984 2.9414 1.1406 5.9023 1.8125 8.8086 0.51562 2.2578 1.1406 4.4648 1.7148 6.707 0.71875 2.8203 1.4023 5.6758 2.1953 8.4609 0.63672 2.2578 1.3789 4.4648 2.0625 6.6953 0.83984 2.7344 1.6445 5.4609 2.543 8.1484 0.75781 2.2578 1.6094 4.4414 2.4102 6.6719 0.96094 2.6289 1.8711 5.2695 2.8906 7.8594 0.86328 2.207 1.8125 4.3438 2.7344 6.5273 1.0664 2.5547 2.1133 5.125 3.2539 7.6562 0.97266 2.1602 2.0273 4.2461 3.0352 6.3828 1.1875 2.4844 2.3516 4.9805 3.6016 7.4141 1.0781 2.125 2.2305 4.1875 3.3594 6.2656 1.2969 2.3867 2.5547 4.7891 3.9102 7.1641 1.1758 2.0625 2.4375 4.0664 3.6602 6.1094 1.3906 2.3047 2.7734 4.6445 4.2344 6.9258 1.2734 1.9922 2.6172 3.9375 3.9258 5.8906 1.5 2.2422 2.9883 4.5 4.5469 6.6953 1.3672 1.9453 2.7969 3.8164 4.2109 5.7227 1.6094 2.1719 3.2031 4.332 4.8594 6.457 1.4531 1.8477 2.9531 3.6602 4.4414 5.4844 1.7148 2.0898 3.4062 4.1758 5.1719 6.2266 1.5352 1.7773 3.1328 3.5273 4.7148 5.2695 1.7891 1.9922 3.5742 3.9961 5.4258 5.9297 1.6328 1.7383 3.3242 3.4062 5.0039 5.1016 1.8711 1.8828 3.7305 3.7812 5.6523 5.6289 1.7266 1.6562 3.4922 3.2539 5.2578 4.8711 1.957 1.7891 3.8984 3.5898 5.8906 5.3164 1.8008 1.5859 3.6602 3.1211 5.4961 4.6562 2.0273 1.6914 4.0547 3.3828 6.1328 5.0273 1.8828 1.4883 3.8047 2.9414 5.7227 4.3789 2.1016 1.5977 4.1992 3.1914 6.3359 4.7266 1.9805 1.4141 3.9961 2.7852 6 4.1641 2.1484 1.4766 4.3086 2.9531 6.5039 4.3672 2.0508 1.3203 4.1289 2.6172 6.2148 3.8867 2.2305 1.3789 4.4648 2.7461 6.7305 4.0664 2.1133 1.2344 4.2461 2.4102 6.3828 3.6016 2.293 1.2617 4.5977 2.5312 6.9258 3.7422 2.1836 1.1406 4.3789 2.2188 6.5742 3.3008 2.3633 1.1641 4.7266 2.3047 7.1289 3.4062 2.2422 1.0312 4.5 2.0156 6.7578 2.9883 2.4102 1.043 4.8242 2.0742 7.2617 3.0586 2.3164 0.9375 4.6562 1.8242 6.9961 2.7109 2.4492 0.91016 4.8945 1.8125 7.3672 2.6875 2.375 0.81641 4.7539 1.6094 7.1523 2.3633 2.5078 0.80469 5.0156 1.5977 7.5469 2.3398 2.4258 0.70703 4.8477 1.3672 7.2852 2.0273 2.5547 0.68359 5.125 1.3438 7.7031 1.9688 2.4609 0.58984 4.9453 1.1523 7.4297 1.6797 2.6055 0.5625 5.2305 1.1055 7.8594 1.5977 2.4961 0.48047 5.0039 0.91016 7.5117 1.3203 2.6641 0.43359 5.3281 0.83984 8.0156 1.2109 2.5312 0.34766 5.0742 0.67188 7.6211 0.96094 2.6992 0.30078 5.4102 0.57422 8.125 0.80469 2.5664 0.22656 5.1484 0.40625 7.7383 0.57422 2.7461 0.17969 5.4961 0.30078 8.2578 0.40625 2.5781 0.097657 5.1836 0.16797 7.7773 0.20313 4.1875 0.046874 8.3867 0.097656 12.613-0.023438 78.602-2.0391 149.69-32.543 203.89-81.348l0.023438 0.097656 1.1992-1.2227c5.8906-5.3164 307.36-283.97 317.07-294.85l0.40625-0.39453 0.007813-0.046875c49.934-56.223 79.547-130.73 77.387-211.92-1.9062-72.602-29.016-138.64-72.574-190.05zm32.219-158.64 62.664 59.566-92.449 44.688zm-409.19 837.52c-5.7852 5.2578-11.82 10.105-18.012 14.641-2.0156 1.4766-4.1289 2.7617-6.1914 4.1641-4.2617 2.9023-8.5547 5.7461-12.973 8.3281-2.5312 1.4766-5.125 2.7852-7.7031 4.1641-4.1055 2.1836-8.2422 4.2734-12.469 6.1914-2.7852 1.2617-5.5938 2.4375-8.4375 3.5742-4.1875 1.6914-8.4102 3.2539-12.695 4.6797-2.8906 0.96094-5.7852 1.9219-8.7109 2.7617-4.4297 1.2852-8.9023 2.375-13.402 3.3945-2.832 0.63672-5.6406 1.332-8.4961 1.8711-5.0508 0.94922-10.152 1.6211-15.266 2.2422-2.3516 0.27734-4.6797 0.69531-7.0312 0.91016-7.3438 0.67187-14.734 1.043-22.164 1.043-0.13281 0-0.25391-0.011718-0.39453-0.011718-0.44531 0-0.88672-0.035157-1.332-0.035157-7.0938-0.046875-14.207-0.43359-21.312-1.0938-0.9375-0.085937-1.8711-0.13281-2.8086-0.23828-7.0664-0.71875-14.125-1.7891-21.18-3.1094-1.3086-0.25391-2.6172-0.48047-3.9258-0.74219-6.9375-1.3906-13.848-3.0859-20.723-5.0508-1.2617-0.35938-2.5195-0.74219-3.7812-1.1406-7.0078-2.125-13.98-4.4766-20.867-7.1875-0.79297-0.30078-1.5586-0.66016-2.3516-0.97266-6.8516-2.7617-13.621-5.7969-20.316-9.1445-0.5625-0.27734-1.1406-0.52734-1.7031-0.81641-6.7812-3.4336-13.43-7.2461-20.004-11.27-1.1172-0.69531-2.2422-1.3438-3.3477-2.0508-6.3242-4.0078-12.539-8.3047-18.625-12.863-1.1641-0.875-2.3164-1.7539-3.4688-2.6523-6.0977-4.7148-12.07-9.6602-17.879-14.914-0.85156-0.76953-1.6797-1.5859-2.5195-2.3633-6.0703-5.6523-12.012-11.508-17.723-17.762-99.324-109.14-100.25-270.07-1.9805-359.57 5.7852-5.2812 11.832-10.117 18.023-14.664 2.0039-1.4648 4.0781-2.7344 6.1211-4.1172 4.2969-2.9297 8.6055-5.7852 13.055-8.3867 2.4961-1.4531 5.0508-2.7461 7.5977-4.1172 4.1641-2.207 8.3516-4.332 12.625-6.2539 2.7344-1.2344 5.4844-2.375 8.2422-3.5039 4.2734-1.7266 8.5938-3.3125 12.961-4.7656 2.8086-0.9375 5.6055-1.8594 8.4492-2.6875 4.5586-1.332 9.1797-2.4609 13.824-3.5039 2.6992-0.60156 5.3633-1.2734 8.0742-1.7773 5.293-0.99609 10.645-1.7148 16.02-2.3516 2.1016-0.25391 4.1875-0.625 6.3008-0.81641 7.3789-0.68359 14.809-1.0664 22.273-1.0664 0.17969 0 0.35938 0.011719 0.53906 0.011719 0.26562 0 0.51562 0.023438 0.78125 0.023438 7.332 0.035156 14.688 0.44531 22.055 1.1289 0.78125 0.070313 1.5586 0.10938 2.3398 0.19141 7.1875 0.73047 14.375 1.8242 21.551 3.168 1.1758 0.22656 2.3516 0.43359 3.5273 0.67188 7.043 1.4141 14.062 3.1328 21.035 5.1367 1.1523 0.33594 2.3047 0.69531 3.457 1.0312 7.1172 2.1484 14.184 4.5352 21.18 7.2852 0.66016 0.26562 1.3086 0.5625 1.9805 0.82812 7.0195 2.8203 13.969 5.9414 20.82 9.3711 0.45703 0.22656 0.92578 0.43359 1.3789 0.66016 6.8516 3.4805 13.57 7.3203 20.207 11.398 1.043 0.64844 2.1016 1.2734 3.1445 1.9336 6.3828 4.043 12.637 8.375 18.77 12.973 1.1172 0.83984 2.2305 1.6914 3.3359 2.543 6.1211 4.7266 12.133 9.6953 17.965 15 0.82812 0.74219 1.6445 1.5586 2.4727 2.3164 6.0859 5.6523 12.035 11.531 17.746 17.797 99.359 109.05 100.25 270.02 1.9414 359.56z"/>
  <path d="m358.39 598.41c-38.855 8.2578-63.758 46.309-55.523 85.211 8.1953 38.891 46.297 63.742 85.188 55.57 38.867-8.1953 63.781-46.355 55.559-85.246-8.207-38.891-46.367-63.719-85.223-55.535z"/>
  <path d="m501.7 731.38c-24.781 5.2695-40.668 29.605-35.473 54.434 5.2578 24.781 29.605 40.691 54.422 35.461 24.828-5.2695 40.691-29.617 35.484-54.422-5.2461-24.828-29.605-40.691-54.434-35.473z"/>
  <path d="m214.77 748.02c-28.152 5.8906-46.129 33.539-40.199 61.645 5.9766 28.129 33.551 46.105 61.68 40.188 28.094-5.9531 46.094-33.551 40.176-61.668-5.918-28.129-33.531-46.117-61.656-40.164z"/>
  <path d="m319.81 870.28c-18.648 3.4453-30.996 21.383-27.551 40.031 3.4688 18.695 21.422 31.078 40.078 27.613 18.719-3.4688 30.973-21.469 27.59-40.129-3.4805-18.707-21.398-31.008-40.117-27.516z"/>
  <path d="m489.98 889.71c-27.395 5.7617-44.867 32.629-39.098 59.953 5.7461 27.348 32.578 44.809 59.965 39.059 27.324-5.7461 44.82-32.594 39.035-59.941-5.7227-27.344-32.602-44.84-59.902-39.07z"/>
 </g>
</svg>
